<mxfile host="Electron" modified="2023-12-02T15:54:36.804Z" agent="Mozilla/5.0 (Windows NT 10.0; Win64; x64) AppleWebKit/537.36 (KHTML, like Gecko) draw.io/21.6.5 Chrome/114.0.5735.243 Electron/25.3.1 Safari/537.36" etag="UNjLBop9TbWAKtE6SXFe" version="21.6.5" type="device">
  <diagram id="YJnn_7VbQ5A6yG1DufFB" name="Page-1">
    <mxGraphModel dx="7100" dy="4150" grid="1" gridSize="8" guides="0" tooltips="1" connect="1" arrows="0" fold="1" page="1" pageScale="1" pageWidth="2560" pageHeight="1440" background="#ffffff" math="0" shadow="0">
      <root>
        <mxCell id="0" />
        <mxCell id="1" parent="0" />
        <mxCell id="ACVkbMIV_SzMfXcmJ6uc-10" value="&lt;i&gt;interface&lt;/i&gt;" style="rounded=1;whiteSpace=wrap;html=1;verticalAlign=top;fillColor=#E6E6E6;" vertex="1" parent="1">
          <mxGeometry x="64" y="1728" width="64" height="128" as="geometry" />
        </mxCell>
        <mxCell id="_zx_krY39pHoXYPesTy1-1" value="&lt;u&gt;module_name&lt;/u&gt;" style="rounded=0;whiteSpace=wrap;html=1;verticalAlign=top;" parent="1" vertex="1">
          <mxGeometry x="1344" y="1728" width="288" height="160" as="geometry" />
        </mxCell>
        <mxCell id="_zx_krY39pHoXYPesTy1-2" value="" style="rounded=1;whiteSpace=wrap;html=1;" parent="1" vertex="1">
          <mxGeometry x="64" y="2096" width="16" height="16" as="geometry" />
        </mxCell>
        <mxCell id="_zx_krY39pHoXYPesTy1-4" style="edgeStyle=orthogonalEdgeStyle;rounded=0;orthogonalLoop=1;jettySize=auto;html=1;exitX=0;exitY=0.5;exitDx=0;exitDy=0;entryX=1;entryY=0.5;entryDx=0;entryDy=0;startArrow=classic;startFill=1;startSize=3;endSize=3;" parent="1" source="_zx_krY39pHoXYPesTy1-2" target="_zx_krY39pHoXYPesTy1-2" edge="1">
          <mxGeometry relative="1" as="geometry" />
        </mxCell>
        <mxCell id="_zx_krY39pHoXYPesTy1-5" value="" style="rounded=1;whiteSpace=wrap;html=1;" parent="1" vertex="1">
          <mxGeometry x="64" y="1760" width="16" height="16" as="geometry" />
        </mxCell>
        <mxCell id="_zx_krY39pHoXYPesTy1-6" style="edgeStyle=orthogonalEdgeStyle;rounded=0;orthogonalLoop=1;jettySize=auto;html=1;exitX=0;exitY=0.5;exitDx=0;exitDy=0;entryX=1;entryY=0.5;entryDx=0;entryDy=0;startArrow=none;startFill=0;startSize=3;endSize=3;" parent="1" source="_zx_krY39pHoXYPesTy1-5" target="_zx_krY39pHoXYPesTy1-5" edge="1">
          <mxGeometry relative="1" as="geometry" />
        </mxCell>
        <mxCell id="_zx_krY39pHoXYPesTy1-7" value="" style="rounded=1;whiteSpace=wrap;html=1;" parent="1" vertex="1">
          <mxGeometry x="64" y="2064" width="16" height="16" as="geometry" />
        </mxCell>
        <mxCell id="_zx_krY39pHoXYPesTy1-8" style="edgeStyle=orthogonalEdgeStyle;rounded=0;orthogonalLoop=1;jettySize=auto;html=1;exitX=0;exitY=0.5;exitDx=0;exitDy=0;entryX=1;entryY=0.5;entryDx=0;entryDy=0;startArrow=classic;startFill=1;startSize=3;endSize=3;endArrow=none;endFill=0;" parent="1" source="_zx_krY39pHoXYPesTy1-7" target="_zx_krY39pHoXYPesTy1-7" edge="1">
          <mxGeometry relative="1" as="geometry" />
        </mxCell>
        <mxCell id="_zx_krY39pHoXYPesTy1-11" value="" style="rounded=1;whiteSpace=wrap;html=1;fillColor=#808080;" parent="1" vertex="1">
          <mxGeometry x="64" y="2128" width="16" height="16" as="geometry" />
        </mxCell>
        <mxCell id="_zx_krY39pHoXYPesTy1-12" style="edgeStyle=orthogonalEdgeStyle;rounded=0;orthogonalLoop=1;jettySize=auto;html=1;exitX=0;exitY=0.5;exitDx=0;exitDy=0;entryX=1;entryY=0.5;entryDx=0;entryDy=0;startArrow=none;startFill=0;startSize=3;endSize=3;" parent="1" source="_zx_krY39pHoXYPesTy1-11" target="_zx_krY39pHoXYPesTy1-11" edge="1">
          <mxGeometry relative="1" as="geometry" />
        </mxCell>
        <mxCell id="_zx_krY39pHoXYPesTy1-17" value="" style="rounded=1;whiteSpace=wrap;html=1;fillColor=#FFFFFF;" parent="1" vertex="1">
          <mxGeometry x="1344" y="1760" width="16" height="16" as="geometry" />
        </mxCell>
        <mxCell id="_zx_krY39pHoXYPesTy1-18" style="edgeStyle=orthogonalEdgeStyle;rounded=0;orthogonalLoop=1;jettySize=auto;html=1;exitX=0;exitY=0.5;exitDx=0;exitDy=0;entryX=1;entryY=0.5;entryDx=0;entryDy=0;startArrow=none;startFill=0;startSize=3;endSize=3;" parent="1" source="_zx_krY39pHoXYPesTy1-17" target="_zx_krY39pHoXYPesTy1-17" edge="1">
          <mxGeometry relative="1" as="geometry" />
        </mxCell>
        <mxCell id="_zx_krY39pHoXYPesTy1-19" value="instance_name" style="text;html=1;strokeColor=none;fillColor=none;align=center;verticalAlign=middle;whiteSpace=wrap;rounded=0;" parent="1" vertex="1">
          <mxGeometry x="1440" y="1792" width="96" height="32" as="geometry" />
        </mxCell>
        <mxCell id="_zx_krY39pHoXYPesTy1-20" value="" style="rounded=1;whiteSpace=wrap;html=1;fillColor=#FFFFFF;" parent="1" vertex="1">
          <mxGeometry x="1344" y="1792" width="16" height="16" as="geometry" />
        </mxCell>
        <mxCell id="_zx_krY39pHoXYPesTy1-21" style="edgeStyle=orthogonalEdgeStyle;rounded=0;orthogonalLoop=1;jettySize=auto;html=1;exitX=0;exitY=0.5;exitDx=0;exitDy=0;entryX=1;entryY=0.5;entryDx=0;entryDy=0;startArrow=none;startFill=0;startSize=3;endSize=3;" parent="1" source="_zx_krY39pHoXYPesTy1-20" target="_zx_krY39pHoXYPesTy1-20" edge="1">
          <mxGeometry relative="1" as="geometry" />
        </mxCell>
        <mxCell id="_zx_krY39pHoXYPesTy1-23" value="" style="rounded=1;whiteSpace=wrap;html=1;fillColor=#FFFFFF;" parent="1" vertex="1">
          <mxGeometry x="1344" y="1824" width="16" height="16" as="geometry" />
        </mxCell>
        <mxCell id="_zx_krY39pHoXYPesTy1-24" style="edgeStyle=orthogonalEdgeStyle;rounded=0;orthogonalLoop=1;jettySize=auto;html=1;exitX=0;exitY=0.5;exitDx=0;exitDy=0;entryX=1;entryY=0.5;entryDx=0;entryDy=0;startArrow=none;startFill=0;startSize=3;endSize=3;" parent="1" source="_zx_krY39pHoXYPesTy1-23" target="_zx_krY39pHoXYPesTy1-23" edge="1">
          <mxGeometry relative="1" as="geometry" />
        </mxCell>
        <mxCell id="_zx_krY39pHoXYPesTy1-25" value="" style="rounded=1;whiteSpace=wrap;html=1;fillColor=#FFFFFF;" parent="1" vertex="1">
          <mxGeometry x="1344" y="1856" width="16" height="16" as="geometry" />
        </mxCell>
        <mxCell id="_zx_krY39pHoXYPesTy1-26" style="edgeStyle=orthogonalEdgeStyle;rounded=0;orthogonalLoop=1;jettySize=auto;html=1;exitX=0;exitY=0.5;exitDx=0;exitDy=0;entryX=1;entryY=0.5;entryDx=0;entryDy=0;startArrow=none;startFill=0;startSize=3;endSize=3;" parent="1" source="_zx_krY39pHoXYPesTy1-25" target="_zx_krY39pHoXYPesTy1-25" edge="1">
          <mxGeometry relative="1" as="geometry" />
        </mxCell>
        <mxCell id="_zx_krY39pHoXYPesTy1-27" value="port_name" style="text;html=1;strokeColor=none;fillColor=none;align=left;verticalAlign=middle;whiteSpace=wrap;rounded=0;fontSize=8;" parent="1" vertex="1">
          <mxGeometry x="1360" y="1760" width="48" height="16" as="geometry" />
        </mxCell>
        <mxCell id="_zx_krY39pHoXYPesTy1-28" value="port_name" style="text;html=1;strokeColor=none;fillColor=none;align=left;verticalAlign=middle;whiteSpace=wrap;rounded=0;fontSize=8;" parent="1" vertex="1">
          <mxGeometry x="1360" y="1792" width="48" height="16" as="geometry" />
        </mxCell>
        <mxCell id="_zx_krY39pHoXYPesTy1-29" value="port_name" style="text;html=1;strokeColor=none;fillColor=none;align=left;verticalAlign=middle;whiteSpace=wrap;rounded=0;fontSize=8;" parent="1" vertex="1">
          <mxGeometry x="1360" y="1824" width="48" height="16" as="geometry" />
        </mxCell>
        <mxCell id="_zx_krY39pHoXYPesTy1-30" value="port_name" style="text;html=1;strokeColor=none;fillColor=none;align=left;verticalAlign=middle;whiteSpace=wrap;rounded=0;fontSize=8;" parent="1" vertex="1">
          <mxGeometry x="1360" y="1856" width="48" height="16" as="geometry" />
        </mxCell>
        <mxCell id="_zx_krY39pHoXYPesTy1-31" value="" style="rounded=1;whiteSpace=wrap;html=1;" parent="1" vertex="1">
          <mxGeometry x="1616" y="1760" width="16" height="16" as="geometry" />
        </mxCell>
        <mxCell id="_zx_krY39pHoXYPesTy1-32" style="edgeStyle=orthogonalEdgeStyle;rounded=0;orthogonalLoop=1;jettySize=auto;html=1;exitX=0;exitY=0.5;exitDx=0;exitDy=0;entryX=1;entryY=0.5;entryDx=0;entryDy=0;startArrow=none;startFill=0;startSize=3;endSize=3;" parent="1" source="_zx_krY39pHoXYPesTy1-31" target="_zx_krY39pHoXYPesTy1-31" edge="1">
          <mxGeometry relative="1" as="geometry" />
        </mxCell>
        <mxCell id="_zx_krY39pHoXYPesTy1-33" value="" style="rounded=1;whiteSpace=wrap;html=1;fillColor=#808080;" parent="1" vertex="1">
          <mxGeometry x="1616" y="1824" width="16" height="16" as="geometry" />
        </mxCell>
        <mxCell id="_zx_krY39pHoXYPesTy1-34" style="edgeStyle=orthogonalEdgeStyle;rounded=0;orthogonalLoop=1;jettySize=auto;html=1;exitX=0;exitY=0.5;exitDx=0;exitDy=0;entryX=1;entryY=0.5;entryDx=0;entryDy=0;startArrow=none;startFill=0;startSize=3;endSize=3;" parent="1" source="_zx_krY39pHoXYPesTy1-33" target="_zx_krY39pHoXYPesTy1-33" edge="1">
          <mxGeometry relative="1" as="geometry" />
        </mxCell>
        <mxCell id="_zx_krY39pHoXYPesTy1-35" value="port_name" style="text;html=1;strokeColor=none;fillColor=none;align=right;verticalAlign=middle;whiteSpace=wrap;rounded=0;fontSize=8;" parent="1" vertex="1">
          <mxGeometry x="1568" y="1760" width="48" height="16" as="geometry" />
        </mxCell>
        <mxCell id="_zx_krY39pHoXYPesTy1-36" value="port_name" style="text;html=1;strokeColor=none;fillColor=none;align=right;verticalAlign=middle;whiteSpace=wrap;rounded=0;fontSize=8;" parent="1" vertex="1">
          <mxGeometry x="1568" y="1824" width="48" height="16" as="geometry" />
        </mxCell>
        <mxCell id="_zx_krY39pHoXYPesTy1-37" value="Normal input / registered output" style="text;html=1;strokeColor=none;fillColor=none;align=left;verticalAlign=middle;whiteSpace=wrap;rounded=0;fontSize=12;" parent="1" vertex="1">
          <mxGeometry x="96" y="2032" width="176" height="16" as="geometry" />
        </mxCell>
        <mxCell id="_zx_krY39pHoXYPesTy1-38" value="Normal input / registered output" style="text;html=1;strokeColor=none;fillColor=none;align=left;verticalAlign=middle;whiteSpace=wrap;rounded=0;fontSize=12;" parent="1" vertex="1">
          <mxGeometry x="96" y="2064" width="176" height="16" as="geometry" />
        </mxCell>
        <mxCell id="_zx_krY39pHoXYPesTy1-39" value="Inout&amp;nbsp; signal" style="text;html=1;strokeColor=none;fillColor=none;align=left;verticalAlign=middle;whiteSpace=wrap;rounded=0;fontSize=12;" parent="1" vertex="1">
          <mxGeometry x="96" y="2096" width="176" height="16" as="geometry" />
        </mxCell>
        <mxCell id="_zx_krY39pHoXYPesTy1-40" value="Combinational output" style="text;html=1;strokeColor=none;fillColor=none;align=left;verticalAlign=middle;whiteSpace=wrap;rounded=0;fontSize=12;" parent="1" vertex="1">
          <mxGeometry x="96" y="2128" width="176" height="16" as="geometry" />
        </mxCell>
        <mxCell id="_zx_krY39pHoXYPesTy1-41" value="&lt;i&gt;combinational&lt;br&gt;process&lt;/i&gt;" style="rounded=0;whiteSpace=wrap;html=1;verticalAlign=top;" parent="1" vertex="1">
          <mxGeometry x="1344" y="2048" width="256" height="128" as="geometry" />
        </mxCell>
        <mxCell id="_zx_krY39pHoXYPesTy1-42" value="" style="rounded=1;whiteSpace=wrap;html=1;fillColor=#FFFFFF;" parent="1" vertex="1">
          <mxGeometry x="1344" y="2096" width="16" height="16" as="geometry" />
        </mxCell>
        <mxCell id="_zx_krY39pHoXYPesTy1-43" style="edgeStyle=orthogonalEdgeStyle;rounded=0;orthogonalLoop=1;jettySize=auto;html=1;exitX=0;exitY=0.5;exitDx=0;exitDy=0;entryX=1;entryY=0.5;entryDx=0;entryDy=0;startArrow=none;startFill=0;startSize=3;endSize=3;" parent="1" source="_zx_krY39pHoXYPesTy1-42" target="_zx_krY39pHoXYPesTy1-42" edge="1">
          <mxGeometry relative="1" as="geometry" />
        </mxCell>
        <mxCell id="_zx_krY39pHoXYPesTy1-45" value="" style="rounded=1;whiteSpace=wrap;html=1;fillColor=#FFFFFF;" parent="1" vertex="1">
          <mxGeometry x="1344" y="2128" width="16" height="16" as="geometry" />
        </mxCell>
        <mxCell id="_zx_krY39pHoXYPesTy1-46" style="edgeStyle=orthogonalEdgeStyle;rounded=0;orthogonalLoop=1;jettySize=auto;html=1;exitX=0;exitY=0.5;exitDx=0;exitDy=0;entryX=1;entryY=0.5;entryDx=0;entryDy=0;startArrow=none;startFill=0;startSize=3;endSize=3;" parent="1" source="_zx_krY39pHoXYPesTy1-45" target="_zx_krY39pHoXYPesTy1-45" edge="1">
          <mxGeometry relative="1" as="geometry" />
        </mxCell>
        <mxCell id="_zx_krY39pHoXYPesTy1-51" value="signal_name" style="text;html=1;strokeColor=none;fillColor=none;align=left;verticalAlign=middle;whiteSpace=wrap;rounded=0;fontSize=8;" parent="1" vertex="1">
          <mxGeometry x="1360" y="2096" width="48" height="16" as="geometry" />
        </mxCell>
        <mxCell id="_zx_krY39pHoXYPesTy1-52" value="signal_name" style="text;html=1;strokeColor=none;fillColor=none;align=left;verticalAlign=middle;whiteSpace=wrap;rounded=0;fontSize=8;" parent="1" vertex="1">
          <mxGeometry x="1360" y="2128" width="48" height="16" as="geometry" />
        </mxCell>
        <mxCell id="_zx_krY39pHoXYPesTy1-57" value="" style="rounded=1;whiteSpace=wrap;html=1;fillColor=#808080;" parent="1" vertex="1">
          <mxGeometry x="1584" y="2096" width="16" height="16" as="geometry" />
        </mxCell>
        <mxCell id="_zx_krY39pHoXYPesTy1-58" style="edgeStyle=orthogonalEdgeStyle;rounded=0;orthogonalLoop=1;jettySize=auto;html=1;exitX=0;exitY=0.5;exitDx=0;exitDy=0;entryX=1;entryY=0.5;entryDx=0;entryDy=0;startArrow=none;startFill=0;startSize=3;endSize=3;" parent="1" source="_zx_krY39pHoXYPesTy1-57" target="_zx_krY39pHoXYPesTy1-57" edge="1">
          <mxGeometry relative="1" as="geometry" />
        </mxCell>
        <mxCell id="_zx_krY39pHoXYPesTy1-60" value="&lt;span style=&quot;text-align: left;&quot;&gt;signal_name&lt;/span&gt;" style="text;html=1;strokeColor=none;fillColor=none;align=right;verticalAlign=middle;whiteSpace=wrap;rounded=0;fontSize=8;" parent="1" vertex="1">
          <mxGeometry x="1536" y="2096" width="48" height="16" as="geometry" />
        </mxCell>
        <mxCell id="_zx_krY39pHoXYPesTy1-71" value="&lt;font style=&quot;font-size: 48px;&quot;&gt;General&lt;/font&gt;" style="rounded=0;whiteSpace=wrap;html=1;fontSize=48;strokeColor=#000000;fillColor=#333333;strokeWidth=2;fontStyle=1;fontColor=#F5F5F5;labelBackgroundColor=none;labelBorderColor=none;align=center;" parent="1" vertex="1">
          <mxGeometry x="64" y="64" width="2432" height="64" as="geometry" />
        </mxCell>
        <mxCell id="_zx_krY39pHoXYPesTy1-76" value="" style="endArrow=none;html=1;rounded=0;fontSize=12;startSize=3;endSize=3;strokeColor=#000000;" parent="1" edge="1">
          <mxGeometry width="50" height="50" relative="1" as="geometry">
            <mxPoint x="64" y="2304" as="sourcePoint" />
            <mxPoint x="96" y="2304" as="targetPoint" />
          </mxGeometry>
        </mxCell>
        <mxCell id="_zx_krY39pHoXYPesTy1-77" value="" style="endArrow=none;html=1;rounded=0;fontSize=12;startSize=3;endSize=3;strokeColor=#000000;" parent="1" edge="1">
          <mxGeometry width="50" height="50" relative="1" as="geometry">
            <mxPoint x="80" y="2320" as="sourcePoint" />
            <mxPoint x="80" y="2288" as="targetPoint" />
          </mxGeometry>
        </mxCell>
        <mxCell id="_zx_krY39pHoXYPesTy1-78" value="Not connected" style="text;html=1;strokeColor=none;fillColor=none;align=left;verticalAlign=middle;whiteSpace=wrap;rounded=0;fontSize=8;" parent="1" vertex="1">
          <mxGeometry x="112" y="2288" width="96" height="32" as="geometry" />
        </mxCell>
        <mxCell id="_zx_krY39pHoXYPesTy1-80" value="" style="endArrow=none;html=1;rounded=0;fontSize=12;startSize=3;endSize=3;strokeColor=#000000;" parent="1" edge="1">
          <mxGeometry width="50" height="50" relative="1" as="geometry">
            <mxPoint x="64" y="2352" as="sourcePoint" />
            <mxPoint x="96" y="2352" as="targetPoint" />
          </mxGeometry>
        </mxCell>
        <mxCell id="_zx_krY39pHoXYPesTy1-81" value="" style="endArrow=none;html=1;rounded=0;fontSize=12;startSize=3;endSize=3;strokeColor=#000000;startArrow=oval;startFill=1;" parent="1" edge="1">
          <mxGeometry width="50" height="50" relative="1" as="geometry">
            <mxPoint x="80" y="2352" as="sourcePoint" />
            <mxPoint x="80" y="2368" as="targetPoint" />
          </mxGeometry>
        </mxCell>
        <mxCell id="_zx_krY39pHoXYPesTy1-82" value="Connected (all signals)" style="text;html=1;strokeColor=none;fillColor=none;align=left;verticalAlign=middle;whiteSpace=wrap;rounded=0;fontSize=8;" parent="1" vertex="1">
          <mxGeometry x="112" y="2336" width="96" height="32" as="geometry" />
        </mxCell>
        <mxCell id="_zx_krY39pHoXYPesTy1-83" value="" style="endArrow=none;html=1;rounded=0;fontSize=12;startSize=3;endSize=3;strokeColor=#000000;" parent="1" edge="1">
          <mxGeometry width="50" height="50" relative="1" as="geometry">
            <mxPoint x="64" y="2400" as="sourcePoint" />
            <mxPoint x="96" y="2400" as="targetPoint" />
          </mxGeometry>
        </mxCell>
        <mxCell id="_zx_krY39pHoXYPesTy1-84" value="" style="endArrow=none;html=1;rounded=0;fontSize=12;startSize=3;endSize=3;strokeColor=#000000;startArrow=oval;startFill=0;" parent="1" edge="1">
          <mxGeometry width="50" height="50" relative="1" as="geometry">
            <mxPoint x="80" y="2400" as="sourcePoint" />
            <mxPoint x="80" y="2416" as="targetPoint" />
          </mxGeometry>
        </mxCell>
        <mxCell id="_zx_krY39pHoXYPesTy1-85" value="Slice signals (subset)" style="text;html=1;strokeColor=none;fillColor=none;align=left;verticalAlign=middle;whiteSpace=wrap;rounded=0;fontSize=8;" parent="1" vertex="1">
          <mxGeometry x="112" y="2384" width="96" height="32" as="geometry" />
        </mxCell>
        <mxCell id="_zx_krY39pHoXYPesTy1-86" value="" style="endArrow=none;html=1;rounded=0;fontSize=12;startSize=3;endSize=3;strokeColor=#000000;endFill=0;" parent="1" edge="1">
          <mxGeometry width="50" height="50" relative="1" as="geometry">
            <mxPoint x="64" y="2448" as="sourcePoint" />
            <mxPoint x="96" y="2448" as="targetPoint" />
          </mxGeometry>
        </mxCell>
        <mxCell id="_zx_krY39pHoXYPesTy1-87" value="" style="endArrow=none;html=1;rounded=0;fontSize=12;startSize=3;endSize=3;strokeColor=#000000;startArrow=diamondThin;startFill=0;" parent="1" edge="1">
          <mxGeometry width="50" height="50" relative="1" as="geometry">
            <mxPoint x="80" y="2448" as="sourcePoint" />
            <mxPoint x="80" y="2464" as="targetPoint" />
          </mxGeometry>
        </mxCell>
        <mxCell id="_zx_krY39pHoXYPesTy1-88" value="Concatenation" style="text;html=1;strokeColor=none;fillColor=none;align=left;verticalAlign=middle;whiteSpace=wrap;rounded=0;fontSize=8;" parent="1" vertex="1">
          <mxGeometry x="112" y="2432" width="96" height="32" as="geometry" />
        </mxCell>
        <mxCell id="_zx_krY39pHoXYPesTy1-91" value="" style="endArrow=none;html=1;rounded=0;fontSize=12;startSize=3;endSize=3;strokeColor=#CCCCCC;" parent="1" edge="1">
          <mxGeometry width="50" height="50" relative="1" as="geometry">
            <mxPoint x="144" y="3200" as="sourcePoint" />
            <mxPoint x="144" y="3056" as="targetPoint" />
          </mxGeometry>
        </mxCell>
        <mxCell id="_zx_krY39pHoXYPesTy1-92" value="" style="endArrow=none;html=1;rounded=0;fontSize=12;startSize=3;endSize=3;strokeColor=#CCCCCC;" parent="1" edge="1">
          <mxGeometry width="50" height="50" relative="1" as="geometry">
            <mxPoint x="176" y="3200" as="sourcePoint" />
            <mxPoint x="176" y="3056" as="targetPoint" />
          </mxGeometry>
        </mxCell>
        <mxCell id="_zx_krY39pHoXYPesTy1-93" value="" style="endArrow=none;html=1;rounded=0;fontSize=12;startSize=3;endSize=3;strokeColor=#CCCCCC;" parent="1" edge="1">
          <mxGeometry width="50" height="50" relative="1" as="geometry">
            <mxPoint x="208" y="3200" as="sourcePoint" />
            <mxPoint x="208" y="3056" as="targetPoint" />
          </mxGeometry>
        </mxCell>
        <mxCell id="_zx_krY39pHoXYPesTy1-94" value="" style="endArrow=none;html=1;rounded=0;fontSize=12;startSize=3;endSize=3;strokeColor=#CCCCCC;" parent="1" edge="1">
          <mxGeometry width="50" height="50" relative="1" as="geometry">
            <mxPoint x="240" y="3200" as="sourcePoint" />
            <mxPoint x="240" y="3056" as="targetPoint" />
          </mxGeometry>
        </mxCell>
        <mxCell id="_zx_krY39pHoXYPesTy1-95" value="" style="endArrow=none;html=1;rounded=0;fontSize=12;startSize=3;endSize=3;strokeColor=#CCCCCC;" parent="1" edge="1">
          <mxGeometry width="50" height="50" relative="1" as="geometry">
            <mxPoint x="272" y="3200" as="sourcePoint" />
            <mxPoint x="272" y="3056" as="targetPoint" />
          </mxGeometry>
        </mxCell>
        <mxCell id="_zx_krY39pHoXYPesTy1-96" value="" style="endArrow=none;html=1;rounded=0;fontSize=12;startSize=3;endSize=3;strokeColor=#CCCCCC;" parent="1" edge="1">
          <mxGeometry width="50" height="50" relative="1" as="geometry">
            <mxPoint x="304" y="3200" as="sourcePoint" />
            <mxPoint x="304" y="3056" as="targetPoint" />
          </mxGeometry>
        </mxCell>
        <mxCell id="_zx_krY39pHoXYPesTy1-97" value="" style="endArrow=none;html=1;rounded=0;fontSize=12;startSize=3;endSize=3;strokeColor=#CCCCCC;" parent="1" edge="1">
          <mxGeometry width="50" height="50" relative="1" as="geometry">
            <mxPoint x="336" y="3200" as="sourcePoint" />
            <mxPoint x="336" y="3056" as="targetPoint" />
          </mxGeometry>
        </mxCell>
        <mxCell id="_zx_krY39pHoXYPesTy1-102" value="" style="endArrow=none;html=1;rounded=0;fontSize=8;startSize=3;endSize=3;strokeColor=#000000;" parent="1" edge="1">
          <mxGeometry width="50" height="50" relative="1" as="geometry">
            <mxPoint x="128" y="3120" as="sourcePoint" />
            <mxPoint x="352" y="3120" as="targetPoint" />
            <Array as="points">
              <mxPoint x="160" y="3120" />
              <mxPoint x="160" y="3104" />
              <mxPoint x="192" y="3104" />
              <mxPoint x="192" y="3120" />
            </Array>
          </mxGeometry>
        </mxCell>
        <mxCell id="_zx_krY39pHoXYPesTy1-103" value="" style="endArrow=none;html=1;rounded=0;fontSize=8;startSize=3;endSize=3;strokeColor=#000000;" parent="1" edge="1">
          <mxGeometry width="50" height="50" relative="1" as="geometry">
            <mxPoint x="176" y="3152" as="sourcePoint" />
            <mxPoint x="352" y="3152" as="targetPoint" />
            <Array as="points">
              <mxPoint x="176" y="3152" />
              <mxPoint x="208" y="3152" />
              <mxPoint x="208" y="3136" />
              <mxPoint x="272" y="3136" />
              <mxPoint x="272" y="3152" />
            </Array>
          </mxGeometry>
        </mxCell>
        <mxCell id="_zx_krY39pHoXYPesTy1-105" value="x" style="rounded=0;whiteSpace=wrap;html=1;fontSize=8;strokeColor=#000000;strokeWidth=1;fillColor=#F19C99;" parent="1" vertex="1">
          <mxGeometry x="128" y="3136" width="48" height="16" as="geometry" />
        </mxCell>
        <mxCell id="_zx_krY39pHoXYPesTy1-107" value="x" style="rounded=0;whiteSpace=wrap;html=1;fontSize=8;strokeColor=#000000;strokeWidth=1;fillColor=#F19C99;" parent="1" vertex="1">
          <mxGeometry x="128" y="3168" width="48" height="16" as="geometry" />
        </mxCell>
        <mxCell id="_zx_krY39pHoXYPesTy1-108" value="0x01" style="rounded=0;whiteSpace=wrap;html=1;fontSize=8;strokeColor=#000000;strokeWidth=1;fillColor=#FFFFFF;" parent="1" vertex="1">
          <mxGeometry x="176" y="3168" width="32" height="16" as="geometry" />
        </mxCell>
        <mxCell id="_zx_krY39pHoXYPesTy1-109" value="0x02" style="rounded=0;whiteSpace=wrap;html=1;fontSize=8;strokeColor=#000000;strokeWidth=1;fillColor=#FFFFFF;" parent="1" vertex="1">
          <mxGeometry x="208" y="3168" width="32" height="16" as="geometry" />
        </mxCell>
        <mxCell id="_zx_krY39pHoXYPesTy1-110" value="0x02" style="rounded=0;whiteSpace=wrap;html=1;fontSize=8;strokeColor=#000000;strokeWidth=1;fillColor=#FFFFFF;" parent="1" vertex="1">
          <mxGeometry x="240" y="3168" width="32" height="16" as="geometry" />
        </mxCell>
        <mxCell id="_zx_krY39pHoXYPesTy1-111" value="0x04" style="rounded=0;whiteSpace=wrap;html=1;fontSize=8;strokeColor=#000000;strokeWidth=1;fillColor=#FFFFFF;" parent="1" vertex="1">
          <mxGeometry x="272" y="3168" width="32" height="16" as="geometry" />
        </mxCell>
        <mxCell id="He0QE-oY5Nnr7kWVYaO9-1" value="&lt;font style=&quot;font-size: 24px;&quot;&gt;Page Setup&lt;/font&gt;" style="rounded=0;whiteSpace=wrap;html=1;fontSize=24;strokeColor=#000000;fillColor=#333333;strokeWidth=2;fontStyle=1;fontColor=#F5F5F5;labelBackgroundColor=none;labelBorderColor=none;align=left;" parent="1" vertex="1">
          <mxGeometry x="64" y="192" width="704" height="32" as="geometry" />
        </mxCell>
        <mxCell id="He0QE-oY5Nnr7kWVYaO9-2" value="&lt;font style=&quot;font-size: 12px;&quot;&gt;Gridsize&lt;/font&gt;" style="rounded=0;whiteSpace=wrap;html=1;fontSize=12;strokeColor=#000000;fillColor=#FFFFFF;strokeWidth=1;align=left;" parent="1" vertex="1">
          <mxGeometry x="64" y="352" width="128" height="32" as="geometry" />
        </mxCell>
        <mxCell id="He0QE-oY5Nnr7kWVYaO9-3" value="&lt;font style=&quot;font-size: 12px;&quot;&gt;Paper Size&lt;/font&gt;" style="rounded=0;whiteSpace=wrap;html=1;fontSize=12;strokeColor=#000000;fillColor=#FFFFFF;strokeWidth=1;align=left;" parent="1" vertex="1">
          <mxGeometry x="64" y="384" width="128" height="32" as="geometry" />
        </mxCell>
        <mxCell id="He0QE-oY5Nnr7kWVYaO9-4" value="&lt;font style=&quot;font-size: 12px;&quot;&gt;Background Color&lt;/font&gt;" style="rounded=0;whiteSpace=wrap;html=1;fontSize=12;strokeColor=#000000;fillColor=#FFFFFF;strokeWidth=1;align=left;" parent="1" vertex="1">
          <mxGeometry x="64" y="416" width="128" height="32" as="geometry" />
        </mxCell>
        <mxCell id="He0QE-oY5Nnr7kWVYaO9-5" value="&lt;font style=&quot;font-size: 12px;&quot;&gt;8&lt;/font&gt;" style="rounded=0;whiteSpace=wrap;html=1;fontSize=12;strokeColor=#000000;fillColor=#FFFFFF;strokeWidth=1;align=left;" parent="1" vertex="1">
          <mxGeometry x="192" y="352" width="64" height="32" as="geometry" />
        </mxCell>
        <mxCell id="He0QE-oY5Nnr7kWVYaO9-6" value="&lt;font style=&quot;font-size: 12px;&quot;&gt;Attribute&lt;/font&gt;" style="rounded=0;whiteSpace=wrap;html=1;fontSize=12;strokeColor=#000000;fillColor=#FFD966;strokeWidth=1;align=left;fontStyle=1" parent="1" vertex="1">
          <mxGeometry x="64" y="320" width="128" height="32" as="geometry" />
        </mxCell>
        <mxCell id="He0QE-oY5Nnr7kWVYaO9-7" value="&lt;font style=&quot;font-size: 12px;&quot;&gt;Value&lt;/font&gt;" style="rounded=0;whiteSpace=wrap;html=1;fontSize=12;strokeColor=#000000;fillColor=#FFD966;strokeWidth=1;align=left;fontStyle=1" parent="1" vertex="1">
          <mxGeometry x="192" y="320" width="64" height="32" as="geometry" />
        </mxCell>
        <mxCell id="He0QE-oY5Nnr7kWVYaO9-8" value="&lt;font style=&quot;font-size: 12px;&quot;&gt;25.6 x 14.4&lt;/font&gt;" style="rounded=0;whiteSpace=wrap;html=1;fontSize=12;strokeColor=#000000;fillColor=#FFFFFF;strokeWidth=1;align=left;" parent="1" vertex="1">
          <mxGeometry x="192" y="384" width="64" height="32" as="geometry" />
        </mxCell>
        <mxCell id="He0QE-oY5Nnr7kWVYaO9-9" value="&lt;font style=&quot;font-size: 12px;&quot;&gt;000000&lt;br&gt;&lt;/font&gt;" style="rounded=0;whiteSpace=wrap;html=1;fontSize=12;strokeColor=#000000;fillColor=#FFFFFF;strokeWidth=1;align=left;" parent="1" vertex="1">
          <mxGeometry x="192" y="416" width="64" height="32" as="geometry" />
        </mxCell>
        <mxCell id="He0QE-oY5Nnr7kWVYaO9-10" value="&lt;font style=&quot;font-size: 24px;&quot;&gt;Headings&lt;/font&gt;" style="rounded=0;whiteSpace=wrap;html=1;fontSize=24;strokeColor=#000000;fillColor=#333333;strokeWidth=2;fontStyle=1;fontColor=#F5F5F5;labelBackgroundColor=none;labelBorderColor=none;align=left;" parent="1" vertex="1">
          <mxGeometry x="64" y="576" width="704" height="32" as="geometry" />
        </mxCell>
        <mxCell id="He0QE-oY5Nnr7kWVYaO9-11" value="&lt;font style=&quot;font-size: 12px;&quot;&gt;Heading 1&lt;/font&gt;" style="rounded=0;whiteSpace=wrap;html=1;fontSize=12;strokeColor=#000000;fillColor=#FFFFFF;strokeWidth=1;align=left;" parent="1" vertex="1">
          <mxGeometry x="64" y="704" width="128" height="32" as="geometry" />
        </mxCell>
        <mxCell id="He0QE-oY5Nnr7kWVYaO9-12" value="&lt;font style=&quot;font-size: 12px;&quot;&gt;Heading 2&lt;/font&gt;" style="rounded=0;whiteSpace=wrap;html=1;fontSize=12;strokeColor=#000000;fillColor=#FFFFFF;strokeWidth=1;align=left;" parent="1" vertex="1">
          <mxGeometry x="64" y="736" width="128" height="32" as="geometry" />
        </mxCell>
        <mxCell id="He0QE-oY5Nnr7kWVYaO9-13" value="&lt;font style=&quot;font-size: 12px;&quot;&gt;Heading 3&lt;/font&gt;" style="rounded=0;whiteSpace=wrap;html=1;fontSize=12;strokeColor=#000000;fillColor=#FFFFFF;strokeWidth=1;align=left;" parent="1" vertex="1">
          <mxGeometry x="64" y="768" width="128" height="32" as="geometry" />
        </mxCell>
        <mxCell id="He0QE-oY5Nnr7kWVYaO9-14" value="64" style="rounded=0;whiteSpace=wrap;html=1;fontSize=12;strokeColor=#000000;fillColor=#FFFFFF;strokeWidth=1;align=left;" parent="1" vertex="1">
          <mxGeometry x="192" y="704" width="64" height="32" as="geometry" />
        </mxCell>
        <mxCell id="He0QE-oY5Nnr7kWVYaO9-15" value="&lt;font style=&quot;font-size: 12px;&quot;&gt;Heading Num&lt;/font&gt;" style="rounded=0;whiteSpace=wrap;html=1;fontSize=12;strokeColor=#000000;fillColor=#FFD966;strokeWidth=1;align=left;fontStyle=1" parent="1" vertex="1">
          <mxGeometry x="64" y="672" width="128" height="32" as="geometry" />
        </mxCell>
        <mxCell id="He0QE-oY5Nnr7kWVYaO9-16" value="&lt;font style=&quot;font-size: 12px;&quot;&gt;Height&lt;/font&gt;" style="rounded=0;whiteSpace=wrap;html=1;fontSize=12;strokeColor=#000000;fillColor=#FFD966;strokeWidth=1;align=left;fontStyle=1" parent="1" vertex="1">
          <mxGeometry x="192" y="672" width="64" height="32" as="geometry" />
        </mxCell>
        <mxCell id="He0QE-oY5Nnr7kWVYaO9-17" value="32" style="rounded=0;whiteSpace=wrap;html=1;fontSize=12;strokeColor=#000000;fillColor=#FFFFFF;strokeWidth=1;align=left;" parent="1" vertex="1">
          <mxGeometry x="192" y="736" width="64" height="32" as="geometry" />
        </mxCell>
        <mxCell id="He0QE-oY5Nnr7kWVYaO9-18" value="&lt;font style=&quot;font-size: 12px;&quot;&gt;32&lt;br&gt;&lt;/font&gt;" style="rounded=0;whiteSpace=wrap;html=1;fontSize=12;strokeColor=#000000;fillColor=#FFFFFF;strokeWidth=1;align=left;" parent="1" vertex="1">
          <mxGeometry x="192" y="768" width="64" height="32" as="geometry" />
        </mxCell>
        <mxCell id="He0QE-oY5Nnr7kWVYaO9-19" value="&lt;font style=&quot;font-size: 12px;&quot;&gt;Width&lt;/font&gt;" style="rounded=0;whiteSpace=wrap;html=1;fontSize=12;strokeColor=#000000;fillColor=#FFD966;strokeWidth=1;align=left;fontStyle=1" parent="1" vertex="1">
          <mxGeometry x="256" y="672" width="64" height="32" as="geometry" />
        </mxCell>
        <mxCell id="He0QE-oY5Nnr7kWVYaO9-20" value="Font Size" style="rounded=0;whiteSpace=wrap;html=1;fontSize=12;strokeColor=#000000;fillColor=#FFD966;strokeWidth=1;align=left;fontStyle=1" parent="1" vertex="1">
          <mxGeometry x="320" y="672" width="64" height="32" as="geometry" />
        </mxCell>
        <mxCell id="He0QE-oY5Nnr7kWVYaO9-21" value="Background Color" style="rounded=0;whiteSpace=wrap;html=1;fontSize=12;strokeColor=#000000;fillColor=#FFD966;strokeWidth=1;align=left;fontStyle=1" parent="1" vertex="1">
          <mxGeometry x="384" y="672" width="96" height="32" as="geometry" />
        </mxCell>
        <mxCell id="He0QE-oY5Nnr7kWVYaO9-22" value="Font Color" style="rounded=0;whiteSpace=wrap;html=1;fontSize=12;strokeColor=#000000;fillColor=#FFD966;strokeWidth=1;align=left;fontStyle=1" parent="1" vertex="1">
          <mxGeometry x="480" y="672" width="64" height="32" as="geometry" />
        </mxCell>
        <mxCell id="He0QE-oY5Nnr7kWVYaO9-23" value="2432&amp;nbsp;" style="rounded=0;whiteSpace=wrap;html=1;fontSize=12;strokeColor=#000000;fillColor=#FFFFFF;strokeWidth=1;align=left;" parent="1" vertex="1">
          <mxGeometry x="256" y="704" width="64" height="32" as="geometry" />
        </mxCell>
        <mxCell id="He0QE-oY5Nnr7kWVYaO9-24" value="-" style="rounded=0;whiteSpace=wrap;html=1;fontSize=12;strokeColor=#000000;fillColor=#FFFFFF;strokeWidth=1;align=left;" parent="1" vertex="1">
          <mxGeometry x="256" y="736" width="64" height="32" as="geometry" />
        </mxCell>
        <mxCell id="He0QE-oY5Nnr7kWVYaO9-25" value="&lt;font style=&quot;font-size: 12px;&quot;&gt;-&lt;br&gt;&lt;/font&gt;" style="rounded=0;whiteSpace=wrap;html=1;fontSize=12;strokeColor=#000000;fillColor=#FFFFFF;strokeWidth=1;align=left;" parent="1" vertex="1">
          <mxGeometry x="256" y="768" width="64" height="32" as="geometry" />
        </mxCell>
        <mxCell id="He0QE-oY5Nnr7kWVYaO9-26" value="48" style="rounded=0;whiteSpace=wrap;html=1;fontSize=12;strokeColor=#000000;fillColor=#FFFFFF;strokeWidth=1;align=left;" parent="1" vertex="1">
          <mxGeometry x="320" y="704" width="64" height="32" as="geometry" />
        </mxCell>
        <mxCell id="He0QE-oY5Nnr7kWVYaO9-27" value="24" style="rounded=0;whiteSpace=wrap;html=1;fontSize=12;strokeColor=#000000;fillColor=#FFFFFF;strokeWidth=1;align=left;" parent="1" vertex="1">
          <mxGeometry x="320" y="736" width="64" height="32" as="geometry" />
        </mxCell>
        <mxCell id="He0QE-oY5Nnr7kWVYaO9-28" value="&lt;font style=&quot;font-size: 12px;&quot;&gt;18&lt;br&gt;&lt;/font&gt;" style="rounded=0;whiteSpace=wrap;html=1;fontSize=12;strokeColor=#000000;fillColor=#FFFFFF;strokeWidth=1;align=left;" parent="1" vertex="1">
          <mxGeometry x="320" y="768" width="64" height="32" as="geometry" />
        </mxCell>
        <mxCell id="He0QE-oY5Nnr7kWVYaO9-29" value="F5F5F5" style="rounded=0;whiteSpace=wrap;html=1;fontSize=12;strokeColor=#000000;fillColor=#FFFFFF;strokeWidth=1;align=left;" parent="1" vertex="1">
          <mxGeometry x="480" y="704" width="64" height="32" as="geometry" />
        </mxCell>
        <mxCell id="He0QE-oY5Nnr7kWVYaO9-30" value="F5F5F5" style="rounded=0;whiteSpace=wrap;html=1;fontSize=12;strokeColor=#000000;fillColor=#FFFFFF;strokeWidth=1;align=left;" parent="1" vertex="1">
          <mxGeometry x="480" y="736" width="64" height="32" as="geometry" />
        </mxCell>
        <mxCell id="He0QE-oY5Nnr7kWVYaO9-31" value="&lt;font style=&quot;font-size: 12px;&quot;&gt;F5F5F5&lt;br&gt;&lt;/font&gt;" style="rounded=0;whiteSpace=wrap;html=1;fontSize=12;strokeColor=#000000;fillColor=#FFFFFF;strokeWidth=1;align=left;" parent="1" vertex="1">
          <mxGeometry x="480" y="768" width="64" height="32" as="geometry" />
        </mxCell>
        <mxCell id="He0QE-oY5Nnr7kWVYaO9-32" value="333333" style="rounded=0;whiteSpace=wrap;html=1;fontSize=12;strokeColor=#000000;fillColor=#FFFFFF;strokeWidth=1;align=left;" parent="1" vertex="1">
          <mxGeometry x="384" y="704" width="96" height="32" as="geometry" />
        </mxCell>
        <mxCell id="He0QE-oY5Nnr7kWVYaO9-33" value="333333" style="rounded=0;whiteSpace=wrap;html=1;fontSize=12;strokeColor=#000000;fillColor=#FFFFFF;strokeWidth=1;align=left;" parent="1" vertex="1">
          <mxGeometry x="384" y="736" width="96" height="32" as="geometry" />
        </mxCell>
        <mxCell id="He0QE-oY5Nnr7kWVYaO9-34" value="&lt;font style=&quot;font-size: 12px;&quot;&gt;333333&lt;br&gt;&lt;/font&gt;" style="rounded=0;whiteSpace=wrap;html=1;fontSize=12;strokeColor=#000000;fillColor=#FFFFFF;strokeWidth=1;align=left;" parent="1" vertex="1">
          <mxGeometry x="384" y="768" width="96" height="32" as="geometry" />
        </mxCell>
        <mxCell id="He0QE-oY5Nnr7kWVYaO9-36" value="&lt;font style=&quot;font-size: 12px;&quot;&gt;Heading 4&lt;/font&gt;" style="rounded=0;whiteSpace=wrap;html=1;fontSize=12;strokeColor=#000000;fillColor=#FFFFFF;strokeWidth=1;align=left;" parent="1" vertex="1">
          <mxGeometry x="64" y="800" width="128" height="32" as="geometry" />
        </mxCell>
        <mxCell id="He0QE-oY5Nnr7kWVYaO9-37" value="&lt;font style=&quot;font-size: 12px;&quot;&gt;16&lt;br&gt;&lt;/font&gt;" style="rounded=0;whiteSpace=wrap;html=1;fontSize=12;strokeColor=#000000;fillColor=#FFFFFF;strokeWidth=1;align=left;" parent="1" vertex="1">
          <mxGeometry x="192" y="800" width="64" height="32" as="geometry" />
        </mxCell>
        <mxCell id="He0QE-oY5Nnr7kWVYaO9-38" value="&lt;font style=&quot;font-size: 12px;&quot;&gt;-&lt;br&gt;&lt;/font&gt;" style="rounded=0;whiteSpace=wrap;html=1;fontSize=12;strokeColor=#000000;fillColor=#FFFFFF;strokeWidth=1;align=left;" parent="1" vertex="1">
          <mxGeometry x="256" y="800" width="64" height="32" as="geometry" />
        </mxCell>
        <mxCell id="He0QE-oY5Nnr7kWVYaO9-39" value="&lt;font style=&quot;font-size: 12px;&quot;&gt;14&lt;br&gt;&lt;/font&gt;" style="rounded=0;whiteSpace=wrap;html=1;fontSize=12;strokeColor=#000000;fillColor=#FFFFFF;strokeWidth=1;align=left;" parent="1" vertex="1">
          <mxGeometry x="320" y="800" width="64" height="32" as="geometry" />
        </mxCell>
        <mxCell id="He0QE-oY5Nnr7kWVYaO9-40" value="&lt;font style=&quot;font-size: 12px;&quot;&gt;F5F5F5&lt;br&gt;&lt;/font&gt;" style="rounded=0;whiteSpace=wrap;html=1;fontSize=12;strokeColor=#000000;fillColor=#FFFFFF;strokeWidth=1;align=left;" parent="1" vertex="1">
          <mxGeometry x="480" y="800" width="64" height="32" as="geometry" />
        </mxCell>
        <mxCell id="He0QE-oY5Nnr7kWVYaO9-41" value="&lt;font style=&quot;font-size: 12px;&quot;&gt;333333&lt;br&gt;&lt;/font&gt;" style="rounded=0;whiteSpace=wrap;html=1;fontSize=12;strokeColor=#000000;fillColor=#FFFFFF;strokeWidth=1;align=left;" parent="1" vertex="1">
          <mxGeometry x="384" y="800" width="96" height="32" as="geometry" />
        </mxCell>
        <mxCell id="He0QE-oY5Nnr7kWVYaO9-44" value="" style="endArrow=none;dashed=1;html=1;strokeWidth=3;rounded=0;fontStyle=1" parent="1" edge="1">
          <mxGeometry width="50" height="50" relative="1" as="geometry">
            <mxPoint x="1280" y="1408" as="sourcePoint" />
            <mxPoint x="1280" y="160" as="targetPoint" />
          </mxGeometry>
        </mxCell>
        <mxCell id="He0QE-oY5Nnr7kWVYaO9-45" value="&lt;font style=&quot;font-size: 24px;&quot;&gt;Page Split&lt;/font&gt;" style="rounded=0;whiteSpace=wrap;html=1;fontSize=24;strokeColor=#000000;fillColor=#333333;strokeWidth=2;fontStyle=1;fontColor=#F5F5F5;labelBackgroundColor=none;labelBorderColor=none;" parent="1" vertex="1">
          <mxGeometry x="64" y="960" width="704" height="32" as="geometry" />
        </mxCell>
        <mxCell id="He0QE-oY5Nnr7kWVYaO9-47" value="Pages can be split into multiple parts with the help of a dashed line. The dashed line shall use the &quot;dashed (1)&quot; pattern, and use 3 pt line width" style="text;html=1;strokeColor=default;fillColor=none;align=left;verticalAlign=top;whiteSpace=wrap;rounded=0;" parent="1" vertex="1">
          <mxGeometry x="64" y="1056" width="704" height="64" as="geometry" />
        </mxCell>
        <mxCell id="ACVkbMIV_SzMfXcmJ6uc-1" value="&lt;font style=&quot;font-size: 48px;&quot;&gt;Block Diagram&lt;/font&gt;" style="rounded=0;whiteSpace=wrap;html=1;fontSize=48;strokeColor=#000000;fillColor=#333333;strokeWidth=2;fontStyle=1;fontColor=#F5F5F5;labelBackgroundColor=none;labelBorderColor=none;align=center;" vertex="1" parent="1">
          <mxGeometry x="64" y="1472" width="2432" height="64" as="geometry" />
        </mxCell>
        <mxCell id="ACVkbMIV_SzMfXcmJ6uc-2" value="&lt;font style=&quot;font-size: 24px;&quot;&gt;Signal&lt;/font&gt;" style="rounded=0;whiteSpace=wrap;html=1;fontSize=24;strokeColor=#000000;fillColor=#333333;strokeWidth=2;fontStyle=1;fontColor=#F5F5F5;labelBackgroundColor=none;labelBorderColor=none;align=left;" vertex="1" parent="1">
          <mxGeometry x="64" y="1600" width="1152" height="32" as="geometry" />
        </mxCell>
        <mxCell id="ACVkbMIV_SzMfXcmJ6uc-3" value="&lt;font style=&quot;font-size: 18px;&quot;&gt;Port&lt;/font&gt;" style="rounded=0;whiteSpace=wrap;html=1;fontSize=18;strokeColor=#000000;fillColor=#333333;strokeWidth=2;fontStyle=0;fontColor=#F5F5F5;labelBackgroundColor=none;labelBorderColor=none;align=left;" vertex="1" parent="1">
          <mxGeometry x="64" y="1984" width="576" height="32" as="geometry" />
        </mxCell>
        <mxCell id="ACVkbMIV_SzMfXcmJ6uc-4" value="&lt;font style=&quot;font-size: 18px;&quot;&gt;Connection&lt;/font&gt;" style="rounded=0;whiteSpace=wrap;html=1;fontSize=18;strokeColor=#000000;fillColor=#333333;strokeWidth=2;fontStyle=0;fontColor=#F5F5F5;labelBackgroundColor=none;labelBorderColor=none;align=left;" vertex="1" parent="1">
          <mxGeometry x="64" y="2240" width="576" height="32" as="geometry" />
        </mxCell>
        <mxCell id="ACVkbMIV_SzMfXcmJ6uc-5" value="&lt;font style=&quot;font-size: 24px;&quot;&gt;Block&lt;/font&gt;" style="rounded=0;whiteSpace=wrap;html=1;fontSize=24;strokeColor=#000000;fillColor=#333333;strokeWidth=2;fontStyle=1;fontColor=#F5F5F5;labelBackgroundColor=none;labelBorderColor=none;align=left;" vertex="1" parent="1">
          <mxGeometry x="1344" y="1600" width="1152" height="32" as="geometry" />
        </mxCell>
        <mxCell id="ACVkbMIV_SzMfXcmJ6uc-6" value="&lt;font style=&quot;font-size: 18px;&quot;&gt;Module&lt;/font&gt;" style="rounded=0;whiteSpace=wrap;html=1;fontSize=18;strokeColor=#000000;fillColor=#333333;strokeWidth=2;fontStyle=0;fontColor=#F5F5F5;labelBackgroundColor=none;labelBorderColor=none;align=left;" vertex="1" parent="1">
          <mxGeometry x="1344" y="1664" width="704" height="32" as="geometry" />
        </mxCell>
        <mxCell id="ACVkbMIV_SzMfXcmJ6uc-7" value="&lt;font style=&quot;font-size: 18px;&quot;&gt;Interface&lt;/font&gt;" style="rounded=0;whiteSpace=wrap;html=1;fontSize=18;strokeColor=#000000;fillColor=#333333;strokeWidth=2;fontStyle=0;fontColor=#F5F5F5;labelBackgroundColor=none;labelBorderColor=none;align=left;" vertex="1" parent="1">
          <mxGeometry x="64" y="1664" width="576" height="32" as="geometry" />
        </mxCell>
        <mxCell id="ACVkbMIV_SzMfXcmJ6uc-8" value="&lt;font style=&quot;font-size: 18px;&quot;&gt;Process &amp;amp; Function&lt;/font&gt;" style="rounded=0;whiteSpace=wrap;html=1;fontSize=18;strokeColor=#000000;fillColor=#333333;strokeWidth=2;fontStyle=0;fontColor=#F5F5F5;labelBackgroundColor=none;labelBorderColor=none;align=left;" vertex="1" parent="1">
          <mxGeometry x="1344" y="1984" width="704" height="32" as="geometry" />
        </mxCell>
        <mxCell id="ACVkbMIV_SzMfXcmJ6uc-9" value="" style="endArrow=none;dashed=1;html=1;strokeWidth=3;rounded=0;fontStyle=1" edge="1" parent="1">
          <mxGeometry width="50" height="50" relative="1" as="geometry">
            <mxPoint x="1280" y="2816" as="sourcePoint" />
            <mxPoint x="1280" y="1568" as="targetPoint" />
          </mxGeometry>
        </mxCell>
        <mxCell id="ACVkbMIV_SzMfXcmJ6uc-11" value="in_0" style="text;html=1;strokeColor=none;fillColor=none;align=right;verticalAlign=middle;whiteSpace=wrap;rounded=0;" vertex="1" parent="1">
          <mxGeometry x="80" y="1760" width="48" height="16" as="geometry" />
        </mxCell>
        <mxCell id="ACVkbMIV_SzMfXcmJ6uc-12" value="" style="rounded=1;whiteSpace=wrap;html=1;" vertex="1" parent="1">
          <mxGeometry x="64" y="2032" width="16" height="16" as="geometry" />
        </mxCell>
        <mxCell id="ACVkbMIV_SzMfXcmJ6uc-13" style="edgeStyle=orthogonalEdgeStyle;rounded=0;orthogonalLoop=1;jettySize=auto;html=1;exitX=0;exitY=0.5;exitDx=0;exitDy=0;entryX=1;entryY=0.5;entryDx=0;entryDy=0;startArrow=none;startFill=0;startSize=3;endSize=3;" edge="1" parent="1" source="ACVkbMIV_SzMfXcmJ6uc-12" target="ACVkbMIV_SzMfXcmJ6uc-12">
          <mxGeometry relative="1" as="geometry" />
        </mxCell>
        <mxCell id="ACVkbMIV_SzMfXcmJ6uc-14" value="" style="rounded=1;whiteSpace=wrap;html=1;" vertex="1" parent="1">
          <mxGeometry x="64" y="1792" width="16" height="16" as="geometry" />
        </mxCell>
        <mxCell id="ACVkbMIV_SzMfXcmJ6uc-15" style="edgeStyle=orthogonalEdgeStyle;rounded=0;orthogonalLoop=1;jettySize=auto;html=1;exitX=0;exitY=0.5;exitDx=0;exitDy=0;entryX=1;entryY=0.5;entryDx=0;entryDy=0;startArrow=none;startFill=0;startSize=3;endSize=3;" edge="1" parent="1" source="ACVkbMIV_SzMfXcmJ6uc-14" target="ACVkbMIV_SzMfXcmJ6uc-14">
          <mxGeometry relative="1" as="geometry" />
        </mxCell>
        <mxCell id="ACVkbMIV_SzMfXcmJ6uc-16" value="in_1" style="text;html=1;strokeColor=none;fillColor=none;align=right;verticalAlign=middle;whiteSpace=wrap;rounded=0;" vertex="1" parent="1">
          <mxGeometry x="80" y="1792" width="48" height="16" as="geometry" />
        </mxCell>
        <mxCell id="ACVkbMIV_SzMfXcmJ6uc-17" value="" style="rounded=1;whiteSpace=wrap;html=1;" vertex="1" parent="1">
          <mxGeometry x="64" y="1824" width="16" height="16" as="geometry" />
        </mxCell>
        <mxCell id="ACVkbMIV_SzMfXcmJ6uc-18" style="edgeStyle=orthogonalEdgeStyle;rounded=0;orthogonalLoop=1;jettySize=auto;html=1;exitX=1;exitY=0.5;exitDx=0;exitDy=0;entryX=0;entryY=0.5;entryDx=0;entryDy=0;startArrow=none;startFill=0;startSize=3;endSize=3;" edge="1" parent="1" source="ACVkbMIV_SzMfXcmJ6uc-17" target="ACVkbMIV_SzMfXcmJ6uc-17">
          <mxGeometry relative="1" as="geometry" />
        </mxCell>
        <mxCell id="ACVkbMIV_SzMfXcmJ6uc-19" value="out_0" style="text;html=1;strokeColor=none;fillColor=none;align=right;verticalAlign=middle;whiteSpace=wrap;rounded=0;" vertex="1" parent="1">
          <mxGeometry x="80" y="1824" width="48" height="16" as="geometry" />
        </mxCell>
        <mxCell id="ACVkbMIV_SzMfXcmJ6uc-20" value="&lt;font style=&quot;font-size: 48px;&quot;&gt;Waveform&lt;/font&gt;" style="rounded=0;whiteSpace=wrap;html=1;fontSize=48;strokeColor=#000000;fillColor=#333333;strokeWidth=2;fontStyle=1;fontColor=#F5F5F5;labelBackgroundColor=none;labelBorderColor=none;align=center;" vertex="1" parent="1">
          <mxGeometry x="64" y="2944" width="2432" height="64" as="geometry" />
        </mxCell>
        <mxCell id="ACVkbMIV_SzMfXcmJ6uc-21" value="&lt;i&gt;sequential&lt;br&gt;process&lt;/i&gt;" style="rounded=0;whiteSpace=wrap;html=1;verticalAlign=top;" vertex="1" parent="1">
          <mxGeometry x="1344" y="2240" width="256" height="128" as="geometry" />
        </mxCell>
        <mxCell id="ACVkbMIV_SzMfXcmJ6uc-22" value="" style="rounded=1;whiteSpace=wrap;html=1;fillColor=#FFFFFF;" vertex="1" parent="1">
          <mxGeometry x="1344" y="2288" width="16" height="16" as="geometry" />
        </mxCell>
        <mxCell id="ACVkbMIV_SzMfXcmJ6uc-23" style="edgeStyle=orthogonalEdgeStyle;rounded=0;orthogonalLoop=1;jettySize=auto;html=1;exitX=0;exitY=0.5;exitDx=0;exitDy=0;entryX=1;entryY=0.5;entryDx=0;entryDy=0;startArrow=none;startFill=0;startSize=3;endSize=3;" edge="1" parent="1" source="ACVkbMIV_SzMfXcmJ6uc-22" target="ACVkbMIV_SzMfXcmJ6uc-22">
          <mxGeometry relative="1" as="geometry" />
        </mxCell>
        <mxCell id="ACVkbMIV_SzMfXcmJ6uc-24" value="" style="rounded=1;whiteSpace=wrap;html=1;fillColor=#FFFFFF;" vertex="1" parent="1">
          <mxGeometry x="1344" y="2320" width="16" height="16" as="geometry" />
        </mxCell>
        <mxCell id="ACVkbMIV_SzMfXcmJ6uc-25" style="edgeStyle=orthogonalEdgeStyle;rounded=0;orthogonalLoop=1;jettySize=auto;html=1;exitX=0;exitY=0.5;exitDx=0;exitDy=0;entryX=1;entryY=0.5;entryDx=0;entryDy=0;startArrow=none;startFill=0;startSize=3;endSize=3;" edge="1" parent="1" source="ACVkbMIV_SzMfXcmJ6uc-24" target="ACVkbMIV_SzMfXcmJ6uc-24">
          <mxGeometry relative="1" as="geometry" />
        </mxCell>
        <mxCell id="ACVkbMIV_SzMfXcmJ6uc-26" value="signal_name" style="text;html=1;strokeColor=none;fillColor=none;align=left;verticalAlign=middle;whiteSpace=wrap;rounded=0;fontSize=8;" vertex="1" parent="1">
          <mxGeometry x="1360" y="2288" width="48" height="16" as="geometry" />
        </mxCell>
        <mxCell id="ACVkbMIV_SzMfXcmJ6uc-27" value="signal_name" style="text;html=1;strokeColor=none;fillColor=none;align=left;verticalAlign=middle;whiteSpace=wrap;rounded=0;fontSize=8;" vertex="1" parent="1">
          <mxGeometry x="1360" y="2320" width="48" height="16" as="geometry" />
        </mxCell>
        <mxCell id="ACVkbMIV_SzMfXcmJ6uc-28" value="" style="rounded=1;whiteSpace=wrap;html=1;fillColor=#FFFFFF;" vertex="1" parent="1">
          <mxGeometry x="1584" y="2288" width="16" height="16" as="geometry" />
        </mxCell>
        <mxCell id="ACVkbMIV_SzMfXcmJ6uc-29" style="edgeStyle=orthogonalEdgeStyle;rounded=0;orthogonalLoop=1;jettySize=auto;html=1;exitX=0;exitY=0.5;exitDx=0;exitDy=0;entryX=1;entryY=0.5;entryDx=0;entryDy=0;startArrow=none;startFill=0;startSize=3;endSize=3;" edge="1" parent="1" source="ACVkbMIV_SzMfXcmJ6uc-28" target="ACVkbMIV_SzMfXcmJ6uc-28">
          <mxGeometry relative="1" as="geometry" />
        </mxCell>
        <mxCell id="ACVkbMIV_SzMfXcmJ6uc-30" value="&lt;span style=&quot;text-align: left;&quot;&gt;signal_name&lt;/span&gt;" style="text;html=1;strokeColor=none;fillColor=none;align=right;verticalAlign=middle;whiteSpace=wrap;rounded=0;fontSize=8;" vertex="1" parent="1">
          <mxGeometry x="1536" y="2288" width="48" height="16" as="geometry" />
        </mxCell>
        <mxCell id="ACVkbMIV_SzMfXcmJ6uc-31" value="clock" style="text;html=1;strokeColor=none;fillColor=none;align=right;verticalAlign=middle;whiteSpace=wrap;rounded=0;fontSize=8;" vertex="1" parent="1">
          <mxGeometry x="64" y="3072" width="48" height="16" as="geometry" />
        </mxCell>
        <mxCell id="ACVkbMIV_SzMfXcmJ6uc-32" value="arst" style="text;html=1;strokeColor=none;fillColor=none;align=right;verticalAlign=middle;whiteSpace=wrap;rounded=0;fontSize=8;" vertex="1" parent="1">
          <mxGeometry x="64" y="3104" width="48" height="16" as="geometry" />
        </mxCell>
        <mxCell id="ACVkbMIV_SzMfXcmJ6uc-33" value="one-bit signal" style="text;html=1;strokeColor=none;fillColor=none;align=right;verticalAlign=middle;whiteSpace=wrap;rounded=0;fontSize=8;" vertex="1" parent="1">
          <mxGeometry x="48" y="3136" width="64" height="16" as="geometry" />
        </mxCell>
        <mxCell id="ACVkbMIV_SzMfXcmJ6uc-34" value="multi-bit signal" style="text;html=1;strokeColor=none;fillColor=none;align=right;verticalAlign=middle;whiteSpace=wrap;rounded=0;fontSize=8;" vertex="1" parent="1">
          <mxGeometry x="48" y="3168" width="64" height="16" as="geometry" />
        </mxCell>
        <mxCell id="ACVkbMIV_SzMfXcmJ6uc-37" value="" style="endArrow=none;html=1;rounded=0;fontSize=8;startSize=3;endSize=3;strokeColor=#000000;" edge="1" parent="1">
          <mxGeometry width="50" height="50" relative="1" as="geometry">
            <mxPoint x="128" y="3088" as="sourcePoint" />
            <mxPoint x="352" y="3072" as="targetPoint" />
            <Array as="points">
              <mxPoint x="144" y="3088" />
              <mxPoint x="144" y="3072" />
              <mxPoint x="160" y="3072" />
              <mxPoint x="160" y="3088" />
              <mxPoint x="176" y="3088" />
              <mxPoint x="176" y="3072" />
              <mxPoint x="192" y="3072" />
              <mxPoint x="192" y="3088" />
              <mxPoint x="208" y="3088" />
              <mxPoint x="208" y="3072" />
              <mxPoint x="224" y="3072" />
              <mxPoint x="224" y="3088" />
              <mxPoint x="240" y="3088" />
              <mxPoint x="240" y="3072" />
              <mxPoint x="256" y="3072" />
              <mxPoint x="256" y="3088" />
              <mxPoint x="272" y="3088" />
              <mxPoint x="272" y="3072" />
              <mxPoint x="288" y="3072" />
              <mxPoint x="288" y="3088" />
              <mxPoint x="304" y="3088" />
              <mxPoint x="304" y="3072" />
              <mxPoint x="320" y="3072" />
              <mxPoint x="320" y="3088" />
              <mxPoint x="336" y="3088" />
              <mxPoint x="336" y="3072" />
            </Array>
          </mxGeometry>
        </mxCell>
        <mxCell id="ACVkbMIV_SzMfXcmJ6uc-38" value="0x05" style="rounded=0;whiteSpace=wrap;html=1;fontSize=8;strokeColor=#000000;strokeWidth=1;fillColor=#FFFFFF;" vertex="1" parent="1">
          <mxGeometry x="304" y="3168" width="32" height="16" as="geometry" />
        </mxCell>
        <mxCell id="ACVkbMIV_SzMfXcmJ6uc-39" value="" style="rounded=0;whiteSpace=wrap;html=1;fontSize=8;strokeColor=#000000;strokeWidth=1;fillColor=#FFFFFF;" vertex="1" parent="1">
          <mxGeometry x="336" y="3168" width="16" height="16" as="geometry" />
        </mxCell>
        <mxCell id="ACVkbMIV_SzMfXcmJ6uc-40" value="This draw should be used when the&lt;br&gt;individual signals are emphesized" style="shape=note;whiteSpace=wrap;html=1;backgroundOutline=1;darkOpacity=0.05;fillColor=#FFE599;verticalAlign=top;align=left;" vertex="1" parent="1">
          <mxGeometry x="256" y="1728" width="256" height="64" as="geometry" />
        </mxCell>
        <mxCell id="ACVkbMIV_SzMfXcmJ6uc-41" value="Connection terminated" style="text;html=1;strokeColor=none;fillColor=none;align=left;verticalAlign=middle;whiteSpace=wrap;rounded=0;fontSize=8;" vertex="1" parent="1">
          <mxGeometry x="112" y="2480" width="96" height="32" as="geometry" />
        </mxCell>
        <mxCell id="ACVkbMIV_SzMfXcmJ6uc-42" value="" style="endArrow=baseDash;html=1;rounded=0;fontSize=12;startSize=3;endSize=3;strokeColor=#000000;endFill=0;" edge="1" parent="1">
          <mxGeometry width="50" height="50" relative="1" as="geometry">
            <mxPoint x="64" y="2496" as="sourcePoint" />
            <mxPoint x="96" y="2496" as="targetPoint" />
          </mxGeometry>
        </mxCell>
      </root>
    </mxGraphModel>
  </diagram>
</mxfile>
